<?xml version="1.0" encoding="utf-8" standalone="no"?>
<!DOCTYPE svg PUBLIC "-//W3C//DTD SVG 1.1//EN"
  "http://www.w3.org/Graphics/SVG/1.1/DTD/svg11.dtd">
<svg height="338.585pt" version="1.1" viewBox="0 0 898.215 338.585" width="898.215pt" xmlns="http://www.w3.org/2000/svg" xmlns:xlink="http://www.w3.org/1999/xlink">
 <metadata>
  <rdf:RDF xmlns:cc="http://creativecommons.org/ns#" xmlns:dc="http://purl.org/dc/elements/1.1/" xmlns:rdf="http://www.w3.org/1999/02/22-rdf-syntax-ns#">
   <cc:Work>
    <dc:type rdf:resource="http://purl.org/dc/dcmitype/StillImage"/>
    <dc:date>2021-08-09T23:07:17.565316</dc:date>
    <dc:format>image/svg+xml</dc:format>
    <dc:creator>
     <cc:Agent>
      <dc:title>Matplotlib v3.4.2, https://matplotlib.org/</dc:title>
     </cc:Agent>
    </dc:creator>
   </cc:Work>
  </rdf:RDF>
 </metadata>
 <defs>
  <style type="text/css">*{stroke-linecap:butt;stroke-linejoin:round;}</style>
 </defs>
 <g id="figure_1">
  <g id="patch_1">
   <path d="M 0 338.585 
L 898.215 338.585 
L 898.215 0 
L 0 0 
z
" style="fill:none;"/>
  </g>
  <g id="axes_1">
   <g id="patch_2">
    <path d="M 54.015 297.1575 
L 891.015 297.1575 
L 891.015 25.3575 
L 54.015 25.3575 
z
" style="fill:#ffffff;"/>
   </g>
   <g id="PolyCollection_1">
    <path clip-path="url(#pdb60f7657a)" d="M 92.060455 261.737862 
L 92.060455 261.936447 
L 125.143458 284.802955 
L 158.226462 205.601013 
L 191.309466 194.552433 
L 224.39247 139.43178 
L 257.475474 125.542251 
L 290.558478 125.87275 
L 323.641482 118.64681 
L 356.724486 106.600166 
L 389.80749 88.282009 
L 422.890494 96.533014 
L 455.973498 85.206447 
L 489.056502 92.304291 
L 522.139506 101.522892 
L 555.22251 100.600472 
L 588.305514 107.218398 
L 621.388518 103.749618 
L 654.471522 127.779675 
L 687.554526 148.39067 
L 720.63753 161.721353 
L 753.720534 172.060531 
L 786.803538 179.879415 
L 819.886542 179.680691 
L 852.969545 170.84811 
L 852.969545 122.932285 
L 852.969545 122.932285 
L 819.886542 117.350083 
L 786.803538 99.933467 
L 753.720534 102.041897 
L 720.63753 99.555938 
L 687.554526 88.377538 
L 654.471522 81.492639 
L 621.388518 86.196345 
L 588.305514 64.807069 
L 555.22251 50.693396 
L 522.139506 51.791248 
L 489.056502 45.285545 
L 455.973498 44.037863 
L 422.890494 51.6863 
L 389.80749 37.712045 
L 356.724486 46.187166 
L 323.641482 70.860281 
L 290.558478 92.535825 
L 257.475474 95.677365 
L 224.39247 110.425442 
L 191.309466 113.897703 
L 158.226462 132.981539 
L 125.143458 121.684025 
L 92.060455 261.737862 
z
" style="fill:#1f77b4;fill-opacity:0.2;"/>
   </g>
   <g id="matplotlib.axis_1">
    <g id="xtick_1">
     <g id="line2d_1">
      <defs>
       <path d="M 0 0 
L 0 3.5 
" id="m463c8b0ed3" style="stroke:#000000;stroke-width:0.8;"/>
      </defs>
      <g>
       <use style="stroke:#000000;stroke-width:0.8;" x="92.060455" xlink:href="#m463c8b0ed3" y="297.1575"/>
      </g>
     </g>
     <g id="text_1">
      <!-- 1 -->
      <g transform="translate(88.879205 311.755937)scale(0.1 -0.1)">
       <defs>
        <path d="M 794 531 
L 1825 531 
L 1825 4091 
L 703 3866 
L 703 4441 
L 1819 4666 
L 2450 4666 
L 2450 531 
L 3481 531 
L 3481 0 
L 794 0 
L 794 531 
z
" id="DejaVuSans-31" transform="scale(0.015625)"/>
       </defs>
       <use xlink:href="#DejaVuSans-31"/>
      </g>
     </g>
    </g>
    <g id="xtick_2">
     <g id="line2d_2">
      <g>
       <use style="stroke:#000000;stroke-width:0.8;" x="125.143458" xlink:href="#m463c8b0ed3" y="297.1575"/>
      </g>
     </g>
     <g id="text_2">
      <!-- 2 -->
      <g transform="translate(121.962208 311.755937)scale(0.1 -0.1)">
       <defs>
        <path d="M 1228 531 
L 3431 531 
L 3431 0 
L 469 0 
L 469 531 
Q 828 903 1448 1529 
Q 2069 2156 2228 2338 
Q 2531 2678 2651 2914 
Q 2772 3150 2772 3378 
Q 2772 3750 2511 3984 
Q 2250 4219 1831 4219 
Q 1534 4219 1204 4116 
Q 875 4013 500 3803 
L 500 4441 
Q 881 4594 1212 4672 
Q 1544 4750 1819 4750 
Q 2544 4750 2975 4387 
Q 3406 4025 3406 3419 
Q 3406 3131 3298 2873 
Q 3191 2616 2906 2266 
Q 2828 2175 2409 1742 
Q 1991 1309 1228 531 
z
" id="DejaVuSans-32" transform="scale(0.015625)"/>
       </defs>
       <use xlink:href="#DejaVuSans-32"/>
      </g>
     </g>
    </g>
    <g id="xtick_3">
     <g id="line2d_3">
      <g>
       <use style="stroke:#000000;stroke-width:0.8;" x="158.226462" xlink:href="#m463c8b0ed3" y="297.1575"/>
      </g>
     </g>
     <g id="text_3">
      <!-- 3 -->
      <g transform="translate(155.045212 311.755937)scale(0.1 -0.1)">
       <defs>
        <path d="M 2597 2516 
Q 3050 2419 3304 2112 
Q 3559 1806 3559 1356 
Q 3559 666 3084 287 
Q 2609 -91 1734 -91 
Q 1441 -91 1130 -33 
Q 819 25 488 141 
L 488 750 
Q 750 597 1062 519 
Q 1375 441 1716 441 
Q 2309 441 2620 675 
Q 2931 909 2931 1356 
Q 2931 1769 2642 2001 
Q 2353 2234 1838 2234 
L 1294 2234 
L 1294 2753 
L 1863 2753 
Q 2328 2753 2575 2939 
Q 2822 3125 2822 3475 
Q 2822 3834 2567 4026 
Q 2313 4219 1838 4219 
Q 1578 4219 1281 4162 
Q 984 4106 628 3988 
L 628 4550 
Q 988 4650 1302 4700 
Q 1616 4750 1894 4750 
Q 2613 4750 3031 4423 
Q 3450 4097 3450 3541 
Q 3450 3153 3228 2886 
Q 3006 2619 2597 2516 
z
" id="DejaVuSans-33" transform="scale(0.015625)"/>
       </defs>
       <use xlink:href="#DejaVuSans-33"/>
      </g>
     </g>
    </g>
    <g id="xtick_4">
     <g id="line2d_4">
      <g>
       <use style="stroke:#000000;stroke-width:0.8;" x="191.309466" xlink:href="#m463c8b0ed3" y="297.1575"/>
      </g>
     </g>
     <g id="text_4">
      <!-- 4 -->
      <g transform="translate(188.128216 311.755937)scale(0.1 -0.1)">
       <defs>
        <path d="M 2419 4116 
L 825 1625 
L 2419 1625 
L 2419 4116 
z
M 2253 4666 
L 3047 4666 
L 3047 1625 
L 3713 1625 
L 3713 1100 
L 3047 1100 
L 3047 0 
L 2419 0 
L 2419 1100 
L 313 1100 
L 313 1709 
L 2253 4666 
z
" id="DejaVuSans-34" transform="scale(0.015625)"/>
       </defs>
       <use xlink:href="#DejaVuSans-34"/>
      </g>
     </g>
    </g>
    <g id="xtick_5">
     <g id="line2d_5">
      <g>
       <use style="stroke:#000000;stroke-width:0.8;" x="224.39247" xlink:href="#m463c8b0ed3" y="297.1575"/>
      </g>
     </g>
     <g id="text_5">
      <!-- 5 -->
      <g transform="translate(221.21122 311.755937)scale(0.1 -0.1)">
       <defs>
        <path d="M 691 4666 
L 3169 4666 
L 3169 4134 
L 1269 4134 
L 1269 2991 
Q 1406 3038 1543 3061 
Q 1681 3084 1819 3084 
Q 2600 3084 3056 2656 
Q 3513 2228 3513 1497 
Q 3513 744 3044 326 
Q 2575 -91 1722 -91 
Q 1428 -91 1123 -41 
Q 819 9 494 109 
L 494 744 
Q 775 591 1075 516 
Q 1375 441 1709 441 
Q 2250 441 2565 725 
Q 2881 1009 2881 1497 
Q 2881 1984 2565 2268 
Q 2250 2553 1709 2553 
Q 1456 2553 1204 2497 
Q 953 2441 691 2322 
L 691 4666 
z
" id="DejaVuSans-35" transform="scale(0.015625)"/>
       </defs>
       <use xlink:href="#DejaVuSans-35"/>
      </g>
     </g>
    </g>
    <g id="xtick_6">
     <g id="line2d_6">
      <g>
       <use style="stroke:#000000;stroke-width:0.8;" x="257.475474" xlink:href="#m463c8b0ed3" y="297.1575"/>
      </g>
     </g>
     <g id="text_6">
      <!-- 6 -->
      <g transform="translate(254.294224 311.755937)scale(0.1 -0.1)">
       <defs>
        <path d="M 2113 2584 
Q 1688 2584 1439 2293 
Q 1191 2003 1191 1497 
Q 1191 994 1439 701 
Q 1688 409 2113 409 
Q 2538 409 2786 701 
Q 3034 994 3034 1497 
Q 3034 2003 2786 2293 
Q 2538 2584 2113 2584 
z
M 3366 4563 
L 3366 3988 
Q 3128 4100 2886 4159 
Q 2644 4219 2406 4219 
Q 1781 4219 1451 3797 
Q 1122 3375 1075 2522 
Q 1259 2794 1537 2939 
Q 1816 3084 2150 3084 
Q 2853 3084 3261 2657 
Q 3669 2231 3669 1497 
Q 3669 778 3244 343 
Q 2819 -91 2113 -91 
Q 1303 -91 875 529 
Q 447 1150 447 2328 
Q 447 3434 972 4092 
Q 1497 4750 2381 4750 
Q 2619 4750 2861 4703 
Q 3103 4656 3366 4563 
z
" id="DejaVuSans-36" transform="scale(0.015625)"/>
       </defs>
       <use xlink:href="#DejaVuSans-36"/>
      </g>
     </g>
    </g>
    <g id="xtick_7">
     <g id="line2d_7">
      <g>
       <use style="stroke:#000000;stroke-width:0.8;" x="290.558478" xlink:href="#m463c8b0ed3" y="297.1575"/>
      </g>
     </g>
     <g id="text_7">
      <!-- 7 -->
      <g transform="translate(287.377228 311.755937)scale(0.1 -0.1)">
       <defs>
        <path d="M 525 4666 
L 3525 4666 
L 3525 4397 
L 1831 0 
L 1172 0 
L 2766 4134 
L 525 4134 
L 525 4666 
z
" id="DejaVuSans-37" transform="scale(0.015625)"/>
       </defs>
       <use xlink:href="#DejaVuSans-37"/>
      </g>
     </g>
    </g>
    <g id="xtick_8">
     <g id="line2d_8">
      <g>
       <use style="stroke:#000000;stroke-width:0.8;" x="323.641482" xlink:href="#m463c8b0ed3" y="297.1575"/>
      </g>
     </g>
     <g id="text_8">
      <!-- 8 -->
      <g transform="translate(320.460232 311.755937)scale(0.1 -0.1)">
       <defs>
        <path d="M 2034 2216 
Q 1584 2216 1326 1975 
Q 1069 1734 1069 1313 
Q 1069 891 1326 650 
Q 1584 409 2034 409 
Q 2484 409 2743 651 
Q 3003 894 3003 1313 
Q 3003 1734 2745 1975 
Q 2488 2216 2034 2216 
z
M 1403 2484 
Q 997 2584 770 2862 
Q 544 3141 544 3541 
Q 544 4100 942 4425 
Q 1341 4750 2034 4750 
Q 2731 4750 3128 4425 
Q 3525 4100 3525 3541 
Q 3525 3141 3298 2862 
Q 3072 2584 2669 2484 
Q 3125 2378 3379 2068 
Q 3634 1759 3634 1313 
Q 3634 634 3220 271 
Q 2806 -91 2034 -91 
Q 1263 -91 848 271 
Q 434 634 434 1313 
Q 434 1759 690 2068 
Q 947 2378 1403 2484 
z
M 1172 3481 
Q 1172 3119 1398 2916 
Q 1625 2713 2034 2713 
Q 2441 2713 2670 2916 
Q 2900 3119 2900 3481 
Q 2900 3844 2670 4047 
Q 2441 4250 2034 4250 
Q 1625 4250 1398 4047 
Q 1172 3844 1172 3481 
z
" id="DejaVuSans-38" transform="scale(0.015625)"/>
       </defs>
       <use xlink:href="#DejaVuSans-38"/>
      </g>
     </g>
    </g>
    <g id="xtick_9">
     <g id="line2d_9">
      <g>
       <use style="stroke:#000000;stroke-width:0.8;" x="356.724486" xlink:href="#m463c8b0ed3" y="297.1575"/>
      </g>
     </g>
     <g id="text_9">
      <!-- 9 -->
      <g transform="translate(353.543236 311.755937)scale(0.1 -0.1)">
       <defs>
        <path d="M 703 97 
L 703 672 
Q 941 559 1184 500 
Q 1428 441 1663 441 
Q 2288 441 2617 861 
Q 2947 1281 2994 2138 
Q 2813 1869 2534 1725 
Q 2256 1581 1919 1581 
Q 1219 1581 811 2004 
Q 403 2428 403 3163 
Q 403 3881 828 4315 
Q 1253 4750 1959 4750 
Q 2769 4750 3195 4129 
Q 3622 3509 3622 2328 
Q 3622 1225 3098 567 
Q 2575 -91 1691 -91 
Q 1453 -91 1209 -44 
Q 966 3 703 97 
z
M 1959 2075 
Q 2384 2075 2632 2365 
Q 2881 2656 2881 3163 
Q 2881 3666 2632 3958 
Q 2384 4250 1959 4250 
Q 1534 4250 1286 3958 
Q 1038 3666 1038 3163 
Q 1038 2656 1286 2365 
Q 1534 2075 1959 2075 
z
" id="DejaVuSans-39" transform="scale(0.015625)"/>
       </defs>
       <use xlink:href="#DejaVuSans-39"/>
      </g>
     </g>
    </g>
    <g id="xtick_10">
     <g id="line2d_10">
      <g>
       <use style="stroke:#000000;stroke-width:0.8;" x="389.80749" xlink:href="#m463c8b0ed3" y="297.1575"/>
      </g>
     </g>
     <g id="text_10">
      <!-- 10 -->
      <g transform="translate(383.44499 311.755937)scale(0.1 -0.1)">
       <defs>
        <path d="M 2034 4250 
Q 1547 4250 1301 3770 
Q 1056 3291 1056 2328 
Q 1056 1369 1301 889 
Q 1547 409 2034 409 
Q 2525 409 2770 889 
Q 3016 1369 3016 2328 
Q 3016 3291 2770 3770 
Q 2525 4250 2034 4250 
z
M 2034 4750 
Q 2819 4750 3233 4129 
Q 3647 3509 3647 2328 
Q 3647 1150 3233 529 
Q 2819 -91 2034 -91 
Q 1250 -91 836 529 
Q 422 1150 422 2328 
Q 422 3509 836 4129 
Q 1250 4750 2034 4750 
z
" id="DejaVuSans-30" transform="scale(0.015625)"/>
       </defs>
       <use xlink:href="#DejaVuSans-31"/>
       <use x="63.623047" xlink:href="#DejaVuSans-30"/>
      </g>
     </g>
    </g>
    <g id="xtick_11">
     <g id="line2d_11">
      <g>
       <use style="stroke:#000000;stroke-width:0.8;" x="422.890494" xlink:href="#m463c8b0ed3" y="297.1575"/>
      </g>
     </g>
     <g id="text_11">
      <!-- 11 -->
      <g transform="translate(416.527994 311.755937)scale(0.1 -0.1)">
       <use xlink:href="#DejaVuSans-31"/>
       <use x="63.623047" xlink:href="#DejaVuSans-31"/>
      </g>
     </g>
    </g>
    <g id="xtick_12">
     <g id="line2d_12">
      <g>
       <use style="stroke:#000000;stroke-width:0.8;" x="455.973498" xlink:href="#m463c8b0ed3" y="297.1575"/>
      </g>
     </g>
     <g id="text_12">
      <!-- 12 -->
      <g transform="translate(449.610998 311.755937)scale(0.1 -0.1)">
       <use xlink:href="#DejaVuSans-31"/>
       <use x="63.623047" xlink:href="#DejaVuSans-32"/>
      </g>
     </g>
    </g>
    <g id="xtick_13">
     <g id="line2d_13">
      <g>
       <use style="stroke:#000000;stroke-width:0.8;" x="489.056502" xlink:href="#m463c8b0ed3" y="297.1575"/>
      </g>
     </g>
     <g id="text_13">
      <!-- 13 -->
      <g transform="translate(482.694002 311.755937)scale(0.1 -0.1)">
       <use xlink:href="#DejaVuSans-31"/>
       <use x="63.623047" xlink:href="#DejaVuSans-33"/>
      </g>
     </g>
    </g>
    <g id="xtick_14">
     <g id="line2d_14">
      <g>
       <use style="stroke:#000000;stroke-width:0.8;" x="522.139506" xlink:href="#m463c8b0ed3" y="297.1575"/>
      </g>
     </g>
     <g id="text_14">
      <!-- 14 -->
      <g transform="translate(515.777006 311.755937)scale(0.1 -0.1)">
       <use xlink:href="#DejaVuSans-31"/>
       <use x="63.623047" xlink:href="#DejaVuSans-34"/>
      </g>
     </g>
    </g>
    <g id="xtick_15">
     <g id="line2d_15">
      <g>
       <use style="stroke:#000000;stroke-width:0.8;" x="555.22251" xlink:href="#m463c8b0ed3" y="297.1575"/>
      </g>
     </g>
     <g id="text_15">
      <!-- 15 -->
      <g transform="translate(548.86001 311.755937)scale(0.1 -0.1)">
       <use xlink:href="#DejaVuSans-31"/>
       <use x="63.623047" xlink:href="#DejaVuSans-35"/>
      </g>
     </g>
    </g>
    <g id="xtick_16">
     <g id="line2d_16">
      <g>
       <use style="stroke:#000000;stroke-width:0.8;" x="588.305514" xlink:href="#m463c8b0ed3" y="297.1575"/>
      </g>
     </g>
     <g id="text_16">
      <!-- 16 -->
      <g transform="translate(581.943014 311.755937)scale(0.1 -0.1)">
       <use xlink:href="#DejaVuSans-31"/>
       <use x="63.623047" xlink:href="#DejaVuSans-36"/>
      </g>
     </g>
    </g>
    <g id="xtick_17">
     <g id="line2d_17">
      <g>
       <use style="stroke:#000000;stroke-width:0.8;" x="621.388518" xlink:href="#m463c8b0ed3" y="297.1575"/>
      </g>
     </g>
     <g id="text_17">
      <!-- 17 -->
      <g transform="translate(615.026018 311.755937)scale(0.1 -0.1)">
       <use xlink:href="#DejaVuSans-31"/>
       <use x="63.623047" xlink:href="#DejaVuSans-37"/>
      </g>
     </g>
    </g>
    <g id="xtick_18">
     <g id="line2d_18">
      <g>
       <use style="stroke:#000000;stroke-width:0.8;" x="654.471522" xlink:href="#m463c8b0ed3" y="297.1575"/>
      </g>
     </g>
     <g id="text_18">
      <!-- 18 -->
      <g transform="translate(648.109022 311.755937)scale(0.1 -0.1)">
       <use xlink:href="#DejaVuSans-31"/>
       <use x="63.623047" xlink:href="#DejaVuSans-38"/>
      </g>
     </g>
    </g>
    <g id="xtick_19">
     <g id="line2d_19">
      <g>
       <use style="stroke:#000000;stroke-width:0.8;" x="687.554526" xlink:href="#m463c8b0ed3" y="297.1575"/>
      </g>
     </g>
     <g id="text_19">
      <!-- 19 -->
      <g transform="translate(681.192026 311.755937)scale(0.1 -0.1)">
       <use xlink:href="#DejaVuSans-31"/>
       <use x="63.623047" xlink:href="#DejaVuSans-39"/>
      </g>
     </g>
    </g>
    <g id="xtick_20">
     <g id="line2d_20">
      <g>
       <use style="stroke:#000000;stroke-width:0.8;" x="720.63753" xlink:href="#m463c8b0ed3" y="297.1575"/>
      </g>
     </g>
     <g id="text_20">
      <!-- 20 -->
      <g transform="translate(714.27503 311.755937)scale(0.1 -0.1)">
       <use xlink:href="#DejaVuSans-32"/>
       <use x="63.623047" xlink:href="#DejaVuSans-30"/>
      </g>
     </g>
    </g>
    <g id="xtick_21">
     <g id="line2d_21">
      <g>
       <use style="stroke:#000000;stroke-width:0.8;" x="753.720534" xlink:href="#m463c8b0ed3" y="297.1575"/>
      </g>
     </g>
     <g id="text_21">
      <!-- 21 -->
      <g transform="translate(747.358034 311.755937)scale(0.1 -0.1)">
       <use xlink:href="#DejaVuSans-32"/>
       <use x="63.623047" xlink:href="#DejaVuSans-31"/>
      </g>
     </g>
    </g>
    <g id="xtick_22">
     <g id="line2d_22">
      <g>
       <use style="stroke:#000000;stroke-width:0.8;" x="786.803538" xlink:href="#m463c8b0ed3" y="297.1575"/>
      </g>
     </g>
     <g id="text_22">
      <!-- 22 -->
      <g transform="translate(780.441038 311.755937)scale(0.1 -0.1)">
       <use xlink:href="#DejaVuSans-32"/>
       <use x="63.623047" xlink:href="#DejaVuSans-32"/>
      </g>
     </g>
    </g>
    <g id="xtick_23">
     <g id="line2d_23">
      <g>
       <use style="stroke:#000000;stroke-width:0.8;" x="819.886542" xlink:href="#m463c8b0ed3" y="297.1575"/>
      </g>
     </g>
     <g id="text_23">
      <!-- 23 -->
      <g transform="translate(813.524042 311.755937)scale(0.1 -0.1)">
       <use xlink:href="#DejaVuSans-32"/>
       <use x="63.623047" xlink:href="#DejaVuSans-33"/>
      </g>
     </g>
    </g>
    <g id="xtick_24">
     <g id="line2d_24">
      <g>
       <use style="stroke:#000000;stroke-width:0.8;" x="852.969545" xlink:href="#m463c8b0ed3" y="297.1575"/>
      </g>
     </g>
     <g id="text_24">
      <!-- 24 -->
      <g transform="translate(846.607045 311.755937)scale(0.1 -0.1)">
       <use xlink:href="#DejaVuSans-32"/>
       <use x="63.623047" xlink:href="#DejaVuSans-34"/>
      </g>
     </g>
    </g>
    <g id="text_25">
     <!-- Tree depth -->
     <g transform="translate(435.337344 328.473437)scale(0.14 -0.14)">
      <defs>
       <path d="M -19 4666 
L 3928 4666 
L 3928 4134 
L 2272 4134 
L 2272 0 
L 1638 0 
L 1638 4134 
L -19 4134 
L -19 4666 
z
" id="DejaVuSans-54" transform="scale(0.015625)"/>
       <path d="M 2631 2963 
Q 2534 3019 2420 3045 
Q 2306 3072 2169 3072 
Q 1681 3072 1420 2755 
Q 1159 2438 1159 1844 
L 1159 0 
L 581 0 
L 581 3500 
L 1159 3500 
L 1159 2956 
Q 1341 3275 1631 3429 
Q 1922 3584 2338 3584 
Q 2397 3584 2469 3576 
Q 2541 3569 2628 3553 
L 2631 2963 
z
" id="DejaVuSans-72" transform="scale(0.015625)"/>
       <path d="M 3597 1894 
L 3597 1613 
L 953 1613 
Q 991 1019 1311 708 
Q 1631 397 2203 397 
Q 2534 397 2845 478 
Q 3156 559 3463 722 
L 3463 178 
Q 3153 47 2828 -22 
Q 2503 -91 2169 -91 
Q 1331 -91 842 396 
Q 353 884 353 1716 
Q 353 2575 817 3079 
Q 1281 3584 2069 3584 
Q 2775 3584 3186 3129 
Q 3597 2675 3597 1894 
z
M 3022 2063 
Q 3016 2534 2758 2815 
Q 2500 3097 2075 3097 
Q 1594 3097 1305 2825 
Q 1016 2553 972 2059 
L 3022 2063 
z
" id="DejaVuSans-65" transform="scale(0.015625)"/>
       <path id="DejaVuSans-20" transform="scale(0.015625)"/>
       <path d="M 2906 2969 
L 2906 4863 
L 3481 4863 
L 3481 0 
L 2906 0 
L 2906 525 
Q 2725 213 2448 61 
Q 2172 -91 1784 -91 
Q 1150 -91 751 415 
Q 353 922 353 1747 
Q 353 2572 751 3078 
Q 1150 3584 1784 3584 
Q 2172 3584 2448 3432 
Q 2725 3281 2906 2969 
z
M 947 1747 
Q 947 1113 1208 752 
Q 1469 391 1925 391 
Q 2381 391 2643 752 
Q 2906 1113 2906 1747 
Q 2906 2381 2643 2742 
Q 2381 3103 1925 3103 
Q 1469 3103 1208 2742 
Q 947 2381 947 1747 
z
" id="DejaVuSans-64" transform="scale(0.015625)"/>
       <path d="M 1159 525 
L 1159 -1331 
L 581 -1331 
L 581 3500 
L 1159 3500 
L 1159 2969 
Q 1341 3281 1617 3432 
Q 1894 3584 2278 3584 
Q 2916 3584 3314 3078 
Q 3713 2572 3713 1747 
Q 3713 922 3314 415 
Q 2916 -91 2278 -91 
Q 1894 -91 1617 61 
Q 1341 213 1159 525 
z
M 3116 1747 
Q 3116 2381 2855 2742 
Q 2594 3103 2138 3103 
Q 1681 3103 1420 2742 
Q 1159 2381 1159 1747 
Q 1159 1113 1420 752 
Q 1681 391 2138 391 
Q 2594 391 2855 752 
Q 3116 1113 3116 1747 
z
" id="DejaVuSans-70" transform="scale(0.015625)"/>
       <path d="M 1172 4494 
L 1172 3500 
L 2356 3500 
L 2356 3053 
L 1172 3053 
L 1172 1153 
Q 1172 725 1289 603 
Q 1406 481 1766 481 
L 2356 481 
L 2356 0 
L 1766 0 
Q 1100 0 847 248 
Q 594 497 594 1153 
L 594 3053 
L 172 3053 
L 172 3500 
L 594 3500 
L 594 4494 
L 1172 4494 
z
" id="DejaVuSans-74" transform="scale(0.015625)"/>
       <path d="M 3513 2113 
L 3513 0 
L 2938 0 
L 2938 2094 
Q 2938 2591 2744 2837 
Q 2550 3084 2163 3084 
Q 1697 3084 1428 2787 
Q 1159 2491 1159 1978 
L 1159 0 
L 581 0 
L 581 4863 
L 1159 4863 
L 1159 2956 
Q 1366 3272 1645 3428 
Q 1925 3584 2291 3584 
Q 2894 3584 3203 3211 
Q 3513 2838 3513 2113 
z
" id="DejaVuSans-68" transform="scale(0.015625)"/>
      </defs>
      <use xlink:href="#DejaVuSans-54"/>
      <use x="46.333984" xlink:href="#DejaVuSans-72"/>
      <use x="85.197266" xlink:href="#DejaVuSans-65"/>
      <use x="146.720703" xlink:href="#DejaVuSans-65"/>
      <use x="208.244141" xlink:href="#DejaVuSans-20"/>
      <use x="240.03125" xlink:href="#DejaVuSans-64"/>
      <use x="303.507812" xlink:href="#DejaVuSans-65"/>
      <use x="365.03125" xlink:href="#DejaVuSans-70"/>
      <use x="428.507812" xlink:href="#DejaVuSans-74"/>
      <use x="467.716797" xlink:href="#DejaVuSans-68"/>
     </g>
    </g>
   </g>
   <g id="matplotlib.axis_2">
    <g id="ytick_1">
     <g id="line2d_25">
      <defs>
       <path d="M 0 0 
L -3.5 0 
" id="m9dd987a7f7" style="stroke:#000000;stroke-width:0.8;"/>
      </defs>
      <g>
       <use style="stroke:#000000;stroke-width:0.8;" x="54.015" xlink:href="#m9dd987a7f7" y="279.483727"/>
      </g>
     </g>
     <g id="text_26">
      <!-- 0.56 -->
      <g transform="translate(24.749375 283.282946)scale(0.1 -0.1)">
       <defs>
        <path d="M 684 794 
L 1344 794 
L 1344 0 
L 684 0 
L 684 794 
z
" id="DejaVuSans-2e" transform="scale(0.015625)"/>
       </defs>
       <use xlink:href="#DejaVuSans-30"/>
       <use x="63.623047" xlink:href="#DejaVuSans-2e"/>
       <use x="95.410156" xlink:href="#DejaVuSans-35"/>
       <use x="159.033203" xlink:href="#DejaVuSans-36"/>
      </g>
     </g>
    </g>
    <g id="ytick_2">
     <g id="line2d_26">
      <g>
       <use style="stroke:#000000;stroke-width:0.8;" x="54.015" xlink:href="#m9dd987a7f7" y="245.068169"/>
      </g>
     </g>
     <g id="text_27">
      <!-- 0.57 -->
      <g transform="translate(24.749375 248.867388)scale(0.1 -0.1)">
       <use xlink:href="#DejaVuSans-30"/>
       <use x="63.623047" xlink:href="#DejaVuSans-2e"/>
       <use x="95.410156" xlink:href="#DejaVuSans-35"/>
       <use x="159.033203" xlink:href="#DejaVuSans-37"/>
      </g>
     </g>
    </g>
    <g id="ytick_3">
     <g id="line2d_27">
      <g>
       <use style="stroke:#000000;stroke-width:0.8;" x="54.015" xlink:href="#m9dd987a7f7" y="210.652611"/>
      </g>
     </g>
     <g id="text_28">
      <!-- 0.58 -->
      <g transform="translate(24.749375 214.45183)scale(0.1 -0.1)">
       <use xlink:href="#DejaVuSans-30"/>
       <use x="63.623047" xlink:href="#DejaVuSans-2e"/>
       <use x="95.410156" xlink:href="#DejaVuSans-35"/>
       <use x="159.033203" xlink:href="#DejaVuSans-38"/>
      </g>
     </g>
    </g>
    <g id="ytick_4">
     <g id="line2d_28">
      <g>
       <use style="stroke:#000000;stroke-width:0.8;" x="54.015" xlink:href="#m9dd987a7f7" y="176.237053"/>
      </g>
     </g>
     <g id="text_29">
      <!-- 0.59 -->
      <g transform="translate(24.749375 180.036272)scale(0.1 -0.1)">
       <use xlink:href="#DejaVuSans-30"/>
       <use x="63.623047" xlink:href="#DejaVuSans-2e"/>
       <use x="95.410156" xlink:href="#DejaVuSans-35"/>
       <use x="159.033203" xlink:href="#DejaVuSans-39"/>
      </g>
     </g>
    </g>
    <g id="ytick_5">
     <g id="line2d_29">
      <g>
       <use style="stroke:#000000;stroke-width:0.8;" x="54.015" xlink:href="#m9dd987a7f7" y="141.821495"/>
      </g>
     </g>
     <g id="text_30">
      <!-- 0.60 -->
      <g transform="translate(24.749375 145.620714)scale(0.1 -0.1)">
       <use xlink:href="#DejaVuSans-30"/>
       <use x="63.623047" xlink:href="#DejaVuSans-2e"/>
       <use x="95.410156" xlink:href="#DejaVuSans-36"/>
       <use x="159.033203" xlink:href="#DejaVuSans-30"/>
      </g>
     </g>
    </g>
    <g id="ytick_6">
     <g id="line2d_30">
      <g>
       <use style="stroke:#000000;stroke-width:0.8;" x="54.015" xlink:href="#m9dd987a7f7" y="107.405937"/>
      </g>
     </g>
     <g id="text_31">
      <!-- 0.61 -->
      <g transform="translate(24.749375 111.205156)scale(0.1 -0.1)">
       <use xlink:href="#DejaVuSans-30"/>
       <use x="63.623047" xlink:href="#DejaVuSans-2e"/>
       <use x="95.410156" xlink:href="#DejaVuSans-36"/>
       <use x="159.033203" xlink:href="#DejaVuSans-31"/>
      </g>
     </g>
    </g>
    <g id="ytick_7">
     <g id="line2d_31">
      <g>
       <use style="stroke:#000000;stroke-width:0.8;" x="54.015" xlink:href="#m9dd987a7f7" y="72.990379"/>
      </g>
     </g>
     <g id="text_32">
      <!-- 0.62 -->
      <g transform="translate(24.749375 76.789598)scale(0.1 -0.1)">
       <use xlink:href="#DejaVuSans-30"/>
       <use x="63.623047" xlink:href="#DejaVuSans-2e"/>
       <use x="95.410156" xlink:href="#DejaVuSans-36"/>
       <use x="159.033203" xlink:href="#DejaVuSans-32"/>
      </g>
     </g>
    </g>
    <g id="ytick_8">
     <g id="line2d_32">
      <g>
       <use style="stroke:#000000;stroke-width:0.8;" x="54.015" xlink:href="#m9dd987a7f7" y="38.574821"/>
      </g>
     </g>
     <g id="text_33">
      <!-- 0.63 -->
      <g transform="translate(24.749375 42.37404)scale(0.1 -0.1)">
       <use xlink:href="#DejaVuSans-30"/>
       <use x="63.623047" xlink:href="#DejaVuSans-2e"/>
       <use x="95.410156" xlink:href="#DejaVuSans-36"/>
       <use x="159.033203" xlink:href="#DejaVuSans-33"/>
      </g>
     </g>
    </g>
    <g id="text_34">
     <!-- Accuracy -->
     <g transform="translate(17.837812 193.216875)rotate(-90)scale(0.14 -0.14)">
      <defs>
       <path d="M 2188 4044 
L 1331 1722 
L 3047 1722 
L 2188 4044 
z
M 1831 4666 
L 2547 4666 
L 4325 0 
L 3669 0 
L 3244 1197 
L 1141 1197 
L 716 0 
L 50 0 
L 1831 4666 
z
" id="DejaVuSans-41" transform="scale(0.015625)"/>
       <path d="M 3122 3366 
L 3122 2828 
Q 2878 2963 2633 3030 
Q 2388 3097 2138 3097 
Q 1578 3097 1268 2742 
Q 959 2388 959 1747 
Q 959 1106 1268 751 
Q 1578 397 2138 397 
Q 2388 397 2633 464 
Q 2878 531 3122 666 
L 3122 134 
Q 2881 22 2623 -34 
Q 2366 -91 2075 -91 
Q 1284 -91 818 406 
Q 353 903 353 1747 
Q 353 2603 823 3093 
Q 1294 3584 2113 3584 
Q 2378 3584 2631 3529 
Q 2884 3475 3122 3366 
z
" id="DejaVuSans-63" transform="scale(0.015625)"/>
       <path d="M 544 1381 
L 544 3500 
L 1119 3500 
L 1119 1403 
Q 1119 906 1312 657 
Q 1506 409 1894 409 
Q 2359 409 2629 706 
Q 2900 1003 2900 1516 
L 2900 3500 
L 3475 3500 
L 3475 0 
L 2900 0 
L 2900 538 
Q 2691 219 2414 64 
Q 2138 -91 1772 -91 
Q 1169 -91 856 284 
Q 544 659 544 1381 
z
M 1991 3584 
L 1991 3584 
z
" id="DejaVuSans-75" transform="scale(0.015625)"/>
       <path d="M 2194 1759 
Q 1497 1759 1228 1600 
Q 959 1441 959 1056 
Q 959 750 1161 570 
Q 1363 391 1709 391 
Q 2188 391 2477 730 
Q 2766 1069 2766 1631 
L 2766 1759 
L 2194 1759 
z
M 3341 1997 
L 3341 0 
L 2766 0 
L 2766 531 
Q 2569 213 2275 61 
Q 1981 -91 1556 -91 
Q 1019 -91 701 211 
Q 384 513 384 1019 
Q 384 1609 779 1909 
Q 1175 2209 1959 2209 
L 2766 2209 
L 2766 2266 
Q 2766 2663 2505 2880 
Q 2244 3097 1772 3097 
Q 1472 3097 1187 3025 
Q 903 2953 641 2809 
L 641 3341 
Q 956 3463 1253 3523 
Q 1550 3584 1831 3584 
Q 2591 3584 2966 3190 
Q 3341 2797 3341 1997 
z
" id="DejaVuSans-61" transform="scale(0.015625)"/>
       <path d="M 2059 -325 
Q 1816 -950 1584 -1140 
Q 1353 -1331 966 -1331 
L 506 -1331 
L 506 -850 
L 844 -850 
Q 1081 -850 1212 -737 
Q 1344 -625 1503 -206 
L 1606 56 
L 191 3500 
L 800 3500 
L 1894 763 
L 2988 3500 
L 3597 3500 
L 2059 -325 
z
" id="DejaVuSans-79" transform="scale(0.015625)"/>
      </defs>
      <use xlink:href="#DejaVuSans-41"/>
      <use x="66.658203" xlink:href="#DejaVuSans-63"/>
      <use x="121.638672" xlink:href="#DejaVuSans-63"/>
      <use x="176.619141" xlink:href="#DejaVuSans-75"/>
      <use x="239.998047" xlink:href="#DejaVuSans-72"/>
      <use x="281.111328" xlink:href="#DejaVuSans-61"/>
      <use x="342.390625" xlink:href="#DejaVuSans-63"/>
      <use x="397.371094" xlink:href="#DejaVuSans-79"/>
     </g>
    </g>
   </g>
   <g id="line2d_33">
    <path clip-path="url(#pdb60f7657a)" d="M 92.060455 261.837155 
L 125.143458 203.24349 
L 158.226462 169.291276 
L 191.309466 154.225068 
L 224.39247 124.928611 
L 257.475474 110.609808 
L 290.558478 109.204287 
L 323.641482 94.753545 
L 356.724486 76.393666 
L 389.80749 62.997027 
L 422.890494 74.109657 
L 455.973498 64.622155 
L 489.056502 68.794918 
L 522.139506 76.65707 
L 555.22251 75.646934 
L 588.305514 86.012734 
L 621.388518 94.972982 
L 654.471522 104.636157 
L 687.554526 118.384104 
L 720.63753 130.638645 
L 753.720534 137.051214 
L 786.803538 139.906441 
L 819.886542 148.515387 
L 852.969545 146.890197 
" style="fill:none;stroke:#1f77b4;stroke-linecap:square;stroke-opacity:0.9;stroke-width:1.5;"/>
    <defs>
     <path d="M 0 3 
C 0.795609 3 1.55874 2.683901 2.12132 2.12132 
C 2.683901 1.55874 3 0.795609 3 0 
C 3 -0.795609 2.683901 -1.55874 2.12132 -2.12132 
C 1.55874 -2.683901 0.795609 -3 0 -3 
C -0.795609 -3 -1.55874 -2.683901 -2.12132 -2.12132 
C -2.683901 -1.55874 -3 -0.795609 -3 0 
C -3 0.795609 -2.683901 1.55874 -2.12132 2.12132 
C -1.55874 2.683901 -0.795609 3 0 3 
z
" id="m11fe0b3260" style="stroke:#1f77b4;stroke-opacity:0.9;"/>
    </defs>
    <g clip-path="url(#pdb60f7657a)">
     <use style="fill:#1f77b4;fill-opacity:0.9;stroke:#1f77b4;stroke-opacity:0.9;" x="92.060455" xlink:href="#m11fe0b3260" y="261.837155"/>
     <use style="fill:#1f77b4;fill-opacity:0.9;stroke:#1f77b4;stroke-opacity:0.9;" x="125.143458" xlink:href="#m11fe0b3260" y="203.24349"/>
     <use style="fill:#1f77b4;fill-opacity:0.9;stroke:#1f77b4;stroke-opacity:0.9;" x="158.226462" xlink:href="#m11fe0b3260" y="169.291276"/>
     <use style="fill:#1f77b4;fill-opacity:0.9;stroke:#1f77b4;stroke-opacity:0.9;" x="191.309466" xlink:href="#m11fe0b3260" y="154.225068"/>
     <use style="fill:#1f77b4;fill-opacity:0.9;stroke:#1f77b4;stroke-opacity:0.9;" x="224.39247" xlink:href="#m11fe0b3260" y="124.928611"/>
     <use style="fill:#1f77b4;fill-opacity:0.9;stroke:#1f77b4;stroke-opacity:0.9;" x="257.475474" xlink:href="#m11fe0b3260" y="110.609808"/>
     <use style="fill:#1f77b4;fill-opacity:0.9;stroke:#1f77b4;stroke-opacity:0.9;" x="290.558478" xlink:href="#m11fe0b3260" y="109.204287"/>
     <use style="fill:#1f77b4;fill-opacity:0.9;stroke:#1f77b4;stroke-opacity:0.9;" x="323.641482" xlink:href="#m11fe0b3260" y="94.753545"/>
     <use style="fill:#1f77b4;fill-opacity:0.9;stroke:#1f77b4;stroke-opacity:0.9;" x="356.724486" xlink:href="#m11fe0b3260" y="76.393666"/>
     <use style="fill:#1f77b4;fill-opacity:0.9;stroke:#1f77b4;stroke-opacity:0.9;" x="389.80749" xlink:href="#m11fe0b3260" y="62.997027"/>
     <use style="fill:#1f77b4;fill-opacity:0.9;stroke:#1f77b4;stroke-opacity:0.9;" x="422.890494" xlink:href="#m11fe0b3260" y="74.109657"/>
     <use style="fill:#1f77b4;fill-opacity:0.9;stroke:#1f77b4;stroke-opacity:0.9;" x="455.973498" xlink:href="#m11fe0b3260" y="64.622155"/>
     <use style="fill:#1f77b4;fill-opacity:0.9;stroke:#1f77b4;stroke-opacity:0.9;" x="489.056502" xlink:href="#m11fe0b3260" y="68.794918"/>
     <use style="fill:#1f77b4;fill-opacity:0.9;stroke:#1f77b4;stroke-opacity:0.9;" x="522.139506" xlink:href="#m11fe0b3260" y="76.65707"/>
     <use style="fill:#1f77b4;fill-opacity:0.9;stroke:#1f77b4;stroke-opacity:0.9;" x="555.22251" xlink:href="#m11fe0b3260" y="75.646934"/>
     <use style="fill:#1f77b4;fill-opacity:0.9;stroke:#1f77b4;stroke-opacity:0.9;" x="588.305514" xlink:href="#m11fe0b3260" y="86.012734"/>
     <use style="fill:#1f77b4;fill-opacity:0.9;stroke:#1f77b4;stroke-opacity:0.9;" x="621.388518" xlink:href="#m11fe0b3260" y="94.972982"/>
     <use style="fill:#1f77b4;fill-opacity:0.9;stroke:#1f77b4;stroke-opacity:0.9;" x="654.471522" xlink:href="#m11fe0b3260" y="104.636157"/>
     <use style="fill:#1f77b4;fill-opacity:0.9;stroke:#1f77b4;stroke-opacity:0.9;" x="687.554526" xlink:href="#m11fe0b3260" y="118.384104"/>
     <use style="fill:#1f77b4;fill-opacity:0.9;stroke:#1f77b4;stroke-opacity:0.9;" x="720.63753" xlink:href="#m11fe0b3260" y="130.638645"/>
     <use style="fill:#1f77b4;fill-opacity:0.9;stroke:#1f77b4;stroke-opacity:0.9;" x="753.720534" xlink:href="#m11fe0b3260" y="137.051214"/>
     <use style="fill:#1f77b4;fill-opacity:0.9;stroke:#1f77b4;stroke-opacity:0.9;" x="786.803538" xlink:href="#m11fe0b3260" y="139.906441"/>
     <use style="fill:#1f77b4;fill-opacity:0.9;stroke:#1f77b4;stroke-opacity:0.9;" x="819.886542" xlink:href="#m11fe0b3260" y="148.515387"/>
     <use style="fill:#1f77b4;fill-opacity:0.9;stroke:#1f77b4;stroke-opacity:0.9;" x="852.969545" xlink:href="#m11fe0b3260" y="146.890197"/>
    </g>
   </g>
   <g id="line2d_34">
    <path clip-path="url(#pdb60f7657a)" d="M 92.060455 261.837156 
L 125.143458 183.609996 
L 158.226462 155.279553 
L 191.309466 145.045455 
L 224.39247 117.329937 
L 257.475474 96.642126 
L 290.558478 81.796095 
L 323.641482 45.295944 
L 356.724486 0.801776 
L 357.969533 -1 
" style="fill:none;stroke:#ff7f0e;stroke-linecap:square;stroke-opacity:0.9;stroke-width:1.5;"/>
    <defs>
     <path d="M 0 -3 
L -0.673542 -0.927051 
L -2.85317 -0.927051 
L -1.089814 0.354102 
L -1.763356 2.427051 
L -0 1.145898 
L 1.763356 2.427051 
L 1.089814 0.354102 
L 2.85317 -0.927051 
L 0.673542 -0.927051 
z
" id="mc84552ce3a" style="stroke:#ff7f0e;stroke-linejoin:bevel;stroke-opacity:0.9;"/>
    </defs>
    <g clip-path="url(#pdb60f7657a)">
     <use style="fill:#ff7f0e;fill-opacity:0.9;stroke:#ff7f0e;stroke-linejoin:bevel;stroke-opacity:0.9;" x="92.060455" xlink:href="#mc84552ce3a" y="261.837156"/>
     <use style="fill:#ff7f0e;fill-opacity:0.9;stroke:#ff7f0e;stroke-linejoin:bevel;stroke-opacity:0.9;" x="125.143458" xlink:href="#mc84552ce3a" y="183.609996"/>
     <use style="fill:#ff7f0e;fill-opacity:0.9;stroke:#ff7f0e;stroke-linejoin:bevel;stroke-opacity:0.9;" x="158.226462" xlink:href="#mc84552ce3a" y="155.279553"/>
     <use style="fill:#ff7f0e;fill-opacity:0.9;stroke:#ff7f0e;stroke-linejoin:bevel;stroke-opacity:0.9;" x="191.309466" xlink:href="#mc84552ce3a" y="145.045455"/>
     <use style="fill:#ff7f0e;fill-opacity:0.9;stroke:#ff7f0e;stroke-linejoin:bevel;stroke-opacity:0.9;" x="224.39247" xlink:href="#mc84552ce3a" y="117.329937"/>
     <use style="fill:#ff7f0e;fill-opacity:0.9;stroke:#ff7f0e;stroke-linejoin:bevel;stroke-opacity:0.9;" x="257.475474" xlink:href="#mc84552ce3a" y="96.642126"/>
     <use style="fill:#ff7f0e;fill-opacity:0.9;stroke:#ff7f0e;stroke-linejoin:bevel;stroke-opacity:0.9;" x="290.558478" xlink:href="#mc84552ce3a" y="81.796095"/>
     <use style="fill:#ff7f0e;fill-opacity:0.9;stroke:#ff7f0e;stroke-linejoin:bevel;stroke-opacity:0.9;" x="323.641482" xlink:href="#mc84552ce3a" y="45.295944"/>
     <use style="fill:#ff7f0e;fill-opacity:0.9;stroke:#ff7f0e;stroke-linejoin:bevel;stroke-opacity:0.9;" x="356.724486" xlink:href="#mc84552ce3a" y="0.801776"/>
     <use style="fill:#ff7f0e;fill-opacity:0.9;stroke:#ff7f0e;stroke-linejoin:bevel;stroke-opacity:0.9;" x="357.969533" xlink:href="#mc84552ce3a" y="-1"/>
    </g>
   </g>
   <g id="patch_3">
    <path d="M 54.015 297.1575 
L 54.015 25.3575 
" style="fill:none;stroke:#000000;stroke-linecap:square;stroke-linejoin:miter;stroke-width:0.8;"/>
   </g>
   <g id="patch_4">
    <path d="M 891.015 297.1575 
L 891.015 25.3575 
" style="fill:none;stroke:#000000;stroke-linecap:square;stroke-linejoin:miter;stroke-width:0.8;"/>
   </g>
   <g id="patch_5">
    <path d="M 54.015 297.1575 
L 891.015 297.1575 
" style="fill:none;stroke:#000000;stroke-linecap:square;stroke-linejoin:miter;stroke-width:0.8;"/>
   </g>
   <g id="patch_6">
    <path d="M 54.015 25.3575 
L 891.015 25.3575 
" style="fill:none;stroke:#000000;stroke-linecap:square;stroke-linejoin:miter;stroke-width:0.8;"/>
   </g>
   <g id="text_35">
    <!-- Accuracy per decision tree depth on training data -->
    <g transform="translate(273.5725 19.3575)scale(0.16 -0.16)">
     <defs>
      <path d="M 603 3500 
L 1178 3500 
L 1178 0 
L 603 0 
L 603 3500 
z
M 603 4863 
L 1178 4863 
L 1178 4134 
L 603 4134 
L 603 4863 
z
" id="DejaVuSans-69" transform="scale(0.015625)"/>
      <path d="M 2834 3397 
L 2834 2853 
Q 2591 2978 2328 3040 
Q 2066 3103 1784 3103 
Q 1356 3103 1142 2972 
Q 928 2841 928 2578 
Q 928 2378 1081 2264 
Q 1234 2150 1697 2047 
L 1894 2003 
Q 2506 1872 2764 1633 
Q 3022 1394 3022 966 
Q 3022 478 2636 193 
Q 2250 -91 1575 -91 
Q 1294 -91 989 -36 
Q 684 19 347 128 
L 347 722 
Q 666 556 975 473 
Q 1284 391 1588 391 
Q 1994 391 2212 530 
Q 2431 669 2431 922 
Q 2431 1156 2273 1281 
Q 2116 1406 1581 1522 
L 1381 1569 
Q 847 1681 609 1914 
Q 372 2147 372 2553 
Q 372 3047 722 3315 
Q 1072 3584 1716 3584 
Q 2034 3584 2315 3537 
Q 2597 3491 2834 3397 
z
" id="DejaVuSans-73" transform="scale(0.015625)"/>
      <path d="M 1959 3097 
Q 1497 3097 1228 2736 
Q 959 2375 959 1747 
Q 959 1119 1226 758 
Q 1494 397 1959 397 
Q 2419 397 2687 759 
Q 2956 1122 2956 1747 
Q 2956 2369 2687 2733 
Q 2419 3097 1959 3097 
z
M 1959 3584 
Q 2709 3584 3137 3096 
Q 3566 2609 3566 1747 
Q 3566 888 3137 398 
Q 2709 -91 1959 -91 
Q 1206 -91 779 398 
Q 353 888 353 1747 
Q 353 2609 779 3096 
Q 1206 3584 1959 3584 
z
" id="DejaVuSans-6f" transform="scale(0.015625)"/>
      <path d="M 3513 2113 
L 3513 0 
L 2938 0 
L 2938 2094 
Q 2938 2591 2744 2837 
Q 2550 3084 2163 3084 
Q 1697 3084 1428 2787 
Q 1159 2491 1159 1978 
L 1159 0 
L 581 0 
L 581 3500 
L 1159 3500 
L 1159 2956 
Q 1366 3272 1645 3428 
Q 1925 3584 2291 3584 
Q 2894 3584 3203 3211 
Q 3513 2838 3513 2113 
z
" id="DejaVuSans-6e" transform="scale(0.015625)"/>
      <path d="M 2906 1791 
Q 2906 2416 2648 2759 
Q 2391 3103 1925 3103 
Q 1463 3103 1205 2759 
Q 947 2416 947 1791 
Q 947 1169 1205 825 
Q 1463 481 1925 481 
Q 2391 481 2648 825 
Q 2906 1169 2906 1791 
z
M 3481 434 
Q 3481 -459 3084 -895 
Q 2688 -1331 1869 -1331 
Q 1566 -1331 1297 -1286 
Q 1028 -1241 775 -1147 
L 775 -588 
Q 1028 -725 1275 -790 
Q 1522 -856 1778 -856 
Q 2344 -856 2625 -561 
Q 2906 -266 2906 331 
L 2906 616 
Q 2728 306 2450 153 
Q 2172 0 1784 0 
Q 1141 0 747 490 
Q 353 981 353 1791 
Q 353 2603 747 3093 
Q 1141 3584 1784 3584 
Q 2172 3584 2450 3431 
Q 2728 3278 2906 2969 
L 2906 3500 
L 3481 3500 
L 3481 434 
z
" id="DejaVuSans-67" transform="scale(0.015625)"/>
     </defs>
     <use xlink:href="#DejaVuSans-41"/>
     <use x="66.658203" xlink:href="#DejaVuSans-63"/>
     <use x="121.638672" xlink:href="#DejaVuSans-63"/>
     <use x="176.619141" xlink:href="#DejaVuSans-75"/>
     <use x="239.998047" xlink:href="#DejaVuSans-72"/>
     <use x="281.111328" xlink:href="#DejaVuSans-61"/>
     <use x="342.390625" xlink:href="#DejaVuSans-63"/>
     <use x="397.371094" xlink:href="#DejaVuSans-79"/>
     <use x="456.550781" xlink:href="#DejaVuSans-20"/>
     <use x="488.337891" xlink:href="#DejaVuSans-70"/>
     <use x="551.814453" xlink:href="#DejaVuSans-65"/>
     <use x="613.337891" xlink:href="#DejaVuSans-72"/>
     <use x="654.451172" xlink:href="#DejaVuSans-20"/>
     <use x="686.238281" xlink:href="#DejaVuSans-64"/>
     <use x="749.714844" xlink:href="#DejaVuSans-65"/>
     <use x="811.238281" xlink:href="#DejaVuSans-63"/>
     <use x="866.21875" xlink:href="#DejaVuSans-69"/>
     <use x="894.001953" xlink:href="#DejaVuSans-73"/>
     <use x="946.101562" xlink:href="#DejaVuSans-69"/>
     <use x="973.884766" xlink:href="#DejaVuSans-6f"/>
     <use x="1035.066406" xlink:href="#DejaVuSans-6e"/>
     <use x="1098.445312" xlink:href="#DejaVuSans-20"/>
     <use x="1130.232422" xlink:href="#DejaVuSans-74"/>
     <use x="1169.441406" xlink:href="#DejaVuSans-72"/>
     <use x="1208.304688" xlink:href="#DejaVuSans-65"/>
     <use x="1269.828125" xlink:href="#DejaVuSans-65"/>
     <use x="1331.351562" xlink:href="#DejaVuSans-20"/>
     <use x="1363.138672" xlink:href="#DejaVuSans-64"/>
     <use x="1426.615234" xlink:href="#DejaVuSans-65"/>
     <use x="1488.138672" xlink:href="#DejaVuSans-70"/>
     <use x="1551.615234" xlink:href="#DejaVuSans-74"/>
     <use x="1590.824219" xlink:href="#DejaVuSans-68"/>
     <use x="1654.203125" xlink:href="#DejaVuSans-20"/>
     <use x="1685.990234" xlink:href="#DejaVuSans-6f"/>
     <use x="1747.171875" xlink:href="#DejaVuSans-6e"/>
     <use x="1810.550781" xlink:href="#DejaVuSans-20"/>
     <use x="1842.337891" xlink:href="#DejaVuSans-74"/>
     <use x="1881.546875" xlink:href="#DejaVuSans-72"/>
     <use x="1922.660156" xlink:href="#DejaVuSans-61"/>
     <use x="1983.939453" xlink:href="#DejaVuSans-69"/>
     <use x="2011.722656" xlink:href="#DejaVuSans-6e"/>
     <use x="2075.101562" xlink:href="#DejaVuSans-69"/>
     <use x="2102.884766" xlink:href="#DejaVuSans-6e"/>
     <use x="2166.263672" xlink:href="#DejaVuSans-67"/>
     <use x="2229.740234" xlink:href="#DejaVuSans-20"/>
     <use x="2261.527344" xlink:href="#DejaVuSans-64"/>
     <use x="2325.003906" xlink:href="#DejaVuSans-61"/>
     <use x="2386.283203" xlink:href="#DejaVuSans-74"/>
     <use x="2425.492188" xlink:href="#DejaVuSans-61"/>
    </g>
   </g>
   <g id="legend_1">
    <g id="patch_7">
     <path d="M 693.679062 62.71375 
L 884.015 62.71375 
Q 886.015 62.71375 886.015 60.71375 
L 886.015 32.3575 
Q 886.015 30.3575 884.015 30.3575 
L 693.679062 30.3575 
Q 691.679062 30.3575 691.679062 32.3575 
L 691.679062 60.71375 
Q 691.679062 62.71375 693.679062 62.71375 
z
" style="fill:#ffffff;opacity:0.8;stroke:#cccccc;stroke-linejoin:miter;"/>
    </g>
    <g id="line2d_35">
     <path d="M 695.679062 38.455937 
L 715.679062 38.455937 
" style="fill:none;stroke:#1f77b4;stroke-linecap:square;stroke-opacity:0.9;stroke-width:1.5;"/>
    </g>
    <g id="line2d_36">
     <g>
      <use style="fill:#1f77b4;fill-opacity:0.9;stroke:#1f77b4;stroke-opacity:0.9;" x="705.679062" xlink:href="#m11fe0b3260" y="38.455937"/>
     </g>
    </g>
    <g id="text_36">
     <!-- mean cross-validation accuracy -->
     <g transform="translate(723.679062 41.955937)scale(0.1 -0.1)">
      <defs>
       <path d="M 3328 2828 
Q 3544 3216 3844 3400 
Q 4144 3584 4550 3584 
Q 5097 3584 5394 3201 
Q 5691 2819 5691 2113 
L 5691 0 
L 5113 0 
L 5113 2094 
Q 5113 2597 4934 2840 
Q 4756 3084 4391 3084 
Q 3944 3084 3684 2787 
Q 3425 2491 3425 1978 
L 3425 0 
L 2847 0 
L 2847 2094 
Q 2847 2600 2669 2842 
Q 2491 3084 2119 3084 
Q 1678 3084 1418 2786 
Q 1159 2488 1159 1978 
L 1159 0 
L 581 0 
L 581 3500 
L 1159 3500 
L 1159 2956 
Q 1356 3278 1631 3431 
Q 1906 3584 2284 3584 
Q 2666 3584 2933 3390 
Q 3200 3197 3328 2828 
z
" id="DejaVuSans-6d" transform="scale(0.015625)"/>
       <path d="M 313 2009 
L 1997 2009 
L 1997 1497 
L 313 1497 
L 313 2009 
z
" id="DejaVuSans-2d" transform="scale(0.015625)"/>
       <path d="M 191 3500 
L 800 3500 
L 1894 563 
L 2988 3500 
L 3597 3500 
L 2284 0 
L 1503 0 
L 191 3500 
z
" id="DejaVuSans-76" transform="scale(0.015625)"/>
       <path d="M 603 4863 
L 1178 4863 
L 1178 0 
L 603 0 
L 603 4863 
z
" id="DejaVuSans-6c" transform="scale(0.015625)"/>
      </defs>
      <use xlink:href="#DejaVuSans-6d"/>
      <use x="97.412109" xlink:href="#DejaVuSans-65"/>
      <use x="158.935547" xlink:href="#DejaVuSans-61"/>
      <use x="220.214844" xlink:href="#DejaVuSans-6e"/>
      <use x="283.59375" xlink:href="#DejaVuSans-20"/>
      <use x="315.380859" xlink:href="#DejaVuSans-63"/>
      <use x="370.361328" xlink:href="#DejaVuSans-72"/>
      <use x="409.224609" xlink:href="#DejaVuSans-6f"/>
      <use x="470.40625" xlink:href="#DejaVuSans-73"/>
      <use x="522.505859" xlink:href="#DejaVuSans-73"/>
      <use x="574.605469" xlink:href="#DejaVuSans-2d"/>
      <use x="608.064453" xlink:href="#DejaVuSans-76"/>
      <use x="667.244141" xlink:href="#DejaVuSans-61"/>
      <use x="728.523438" xlink:href="#DejaVuSans-6c"/>
      <use x="756.306641" xlink:href="#DejaVuSans-69"/>
      <use x="784.089844" xlink:href="#DejaVuSans-64"/>
      <use x="847.566406" xlink:href="#DejaVuSans-61"/>
      <use x="908.845703" xlink:href="#DejaVuSans-74"/>
      <use x="948.054688" xlink:href="#DejaVuSans-69"/>
      <use x="975.837891" xlink:href="#DejaVuSans-6f"/>
      <use x="1037.019531" xlink:href="#DejaVuSans-6e"/>
      <use x="1100.398438" xlink:href="#DejaVuSans-20"/>
      <use x="1132.185547" xlink:href="#DejaVuSans-61"/>
      <use x="1193.464844" xlink:href="#DejaVuSans-63"/>
      <use x="1248.445312" xlink:href="#DejaVuSans-63"/>
      <use x="1303.425781" xlink:href="#DejaVuSans-75"/>
      <use x="1366.804688" xlink:href="#DejaVuSans-72"/>
      <use x="1407.917969" xlink:href="#DejaVuSans-61"/>
      <use x="1469.197266" xlink:href="#DejaVuSans-63"/>
      <use x="1524.177734" xlink:href="#DejaVuSans-79"/>
     </g>
    </g>
    <g id="line2d_37">
     <path d="M 695.679062 53.134062 
L 715.679062 53.134062 
" style="fill:none;stroke:#ff7f0e;stroke-linecap:square;stroke-opacity:0.9;stroke-width:1.5;"/>
    </g>
    <g id="line2d_38">
     <g>
      <use style="fill:#ff7f0e;fill-opacity:0.9;stroke:#ff7f0e;stroke-linejoin:bevel;stroke-opacity:0.9;" x="705.679062" xlink:href="#mc84552ce3a" y="53.134062"/>
     </g>
    </g>
    <g id="text_37">
     <!-- train accuracy -->
     <g transform="translate(723.679062 56.634062)scale(0.1 -0.1)">
      <use xlink:href="#DejaVuSans-74"/>
      <use x="39.208984" xlink:href="#DejaVuSans-72"/>
      <use x="80.322266" xlink:href="#DejaVuSans-61"/>
      <use x="141.601562" xlink:href="#DejaVuSans-69"/>
      <use x="169.384766" xlink:href="#DejaVuSans-6e"/>
      <use x="232.763672" xlink:href="#DejaVuSans-20"/>
      <use x="264.550781" xlink:href="#DejaVuSans-61"/>
      <use x="325.830078" xlink:href="#DejaVuSans-63"/>
      <use x="380.810547" xlink:href="#DejaVuSans-63"/>
      <use x="435.791016" xlink:href="#DejaVuSans-75"/>
      <use x="499.169922" xlink:href="#DejaVuSans-72"/>
      <use x="540.283203" xlink:href="#DejaVuSans-61"/>
      <use x="601.5625" xlink:href="#DejaVuSans-63"/>
      <use x="656.542969" xlink:href="#DejaVuSans-79"/>
     </g>
    </g>
   </g>
  </g>
 </g>
 <defs>
  <clipPath id="pdb60f7657a">
   <rect height="271.8" width="837" x="54.015" y="25.3575"/>
  </clipPath>
 </defs>
</svg>
